<svg xmlns="http://www.w3.org/2000/svg" height="26px" viewBox="0 -960 960 960" width="26px" fill="#666666"><path d="M186.67-120q-27 0-46.84-19.83Q120-159.67 120-186.67v-586.66q0-27 19.83-46.84Q159.67-840 186.67-840H524q17.07 0 26.04 15.5 8.96 15.5.96 32.17-7 16.66-10.67 34.19-3.66 17.52-3.66 36.14 0 76.91 54.21 131.12 54.21 54.21 131.12 54.21 18.62 0 36.14-3.66Q775.67-544 792.33-551q17.34-7 32.5 1.33Q840-541.33 840-524v337.33q0 27-19.83 46.84Q800.33-120 773.33-120H186.67ZM240-281.33h480L574-476 449.33-311.33 356.67-434 240-281.33Zm481.88-322q-14.21 0-23.71-9.59-9.5-9.58-9.5-23.75V-688h-52q-14.17 0-23.75-9.62-9.59-9.61-9.59-23.83 0-14.22 9.59-23.72 9.58-9.5 23.75-9.5h52v-52q0-14.16 9.61-23.75 9.62-9.58 23.84-9.58 14.21 0 23.71 9.58 9.5 9.59 9.5 23.75v52h51.34q14.16 0 23.75 9.62 9.58 9.62 9.58 23.83 0 14.22-9.58 23.72-9.59 9.5-23.75 9.5h-51.34v51.33q0 14.17-9.61 23.75-9.62 9.59-23.84 9.59Z"/></svg>